<svg width="19" height="18" viewBox="0 0 19 18" fill="none" xmlns="http://www.w3.org/2000/svg">
<path d="M13.5248 6.1875C10.8173 6.1875 8.64979 7.3125 8.64979 8.4375V15.6863C8.64979 16.9988 10.746 18 13.5248 18C16.3035 18 18.3998 17.0044 18.3998 15.6863V8.4375C18.3998 7.3125 16.2323 6.1875 13.5248 6.1875ZM17.6498 12.0938C17.6498 12.8325 15.8854 13.6575 13.5248 13.6575C11.1642 13.6575 9.39979 12.8325 9.39979 12.0938V9.76875C10.2492 10.4081 11.7454 10.815 13.5248 10.815C15.3042 10.815 16.8004 10.4081 17.6498 9.76875V12.0938ZM13.5248 6.9375C15.8854 6.9375 17.6498 7.7625 17.6498 8.50125C17.6498 9.24 15.8854 10.065 13.5248 10.065C11.1642 10.065 9.39979 9.24 9.39979 8.50125C9.39979 7.7625 11.1642 6.9375 13.5248 6.9375ZM13.5248 17.25C11.1642 17.25 9.39979 16.425 9.39979 15.6863V13.3613C10.2492 14.0006 11.7454 14.4075 13.5248 14.4075C15.3042 14.4075 16.8004 14.0006 17.6498 13.3613V15.6863C17.6498 16.425 15.8854 17.25 13.5248 17.25ZM8.62354 3.5625C8.8424 3.56805 9.0572 3.62285 9.25197 3.72283C9.44673 3.82281 9.61646 3.9654 9.74854 4.14C10.0269 4.49117 10.1964 4.91615 10.236 5.3625C10.2412 5.41151 10.2559 5.45903 10.2795 5.50233C10.303 5.54563 10.3348 5.58388 10.3731 5.61487C10.4114 5.64587 10.4555 5.66901 10.5027 5.68297C10.55 5.69694 10.5995 5.70145 10.6485 5.69625C10.7472 5.68585 10.8376 5.6368 10.9002 5.55985C10.9627 5.48289 10.9923 5.38429 10.9823 5.28563C10.929 4.69393 10.7049 4.13046 10.3373 3.66375C10.1385 3.39939 9.88092 3.18487 9.58496 3.03714C9.28901 2.8894 8.96276 2.8125 8.63198 2.8125C8.3012 2.8125 7.97495 2.8894 7.67899 3.03714C7.38304 3.18487 7.12548 3.39939 6.92667 3.66375C6.49229 4.2249 6.25659 4.91444 6.25659 5.62407C6.25659 6.3337 6.49229 7.02323 6.92667 7.58438C7.04712 7.73529 7.17874 7.87694 7.32042 8.00813C7.39023 8.07016 7.48015 8.1048 7.57354 8.10563C7.62587 8.1055 7.67759 8.09443 7.72539 8.07312C7.77318 8.05181 7.81598 8.02073 7.85104 7.98188C7.88424 7.94535 7.9099 7.90264 7.92656 7.85617C7.94321 7.80971 7.95053 7.76041 7.94809 7.71112C7.94565 7.66182 7.9335 7.61349 7.91235 7.56889C7.89119 7.5243 7.86143 7.48432 7.82479 7.45125C7.71019 7.34618 7.60422 7.23206 7.50792 7.11C7.1831 6.68308 7.00722 6.16144 7.00722 5.625C7.00722 5.08857 7.1831 4.56692 7.50792 4.14C7.6391 3.96671 7.80736 3.82493 8.00038 3.72501C8.1934 3.62509 8.40631 3.56957 8.62354 3.5625Z" fill="black"/>
<path d="M7.5249 9.75H3.93053C3.84917 9.03987 3.53024 8.37806 3.0255 7.87196C2.52076 7.36586 1.85981 7.04515 1.1499 6.96187V4.33688C1.86877 4.25173 2.53724 3.92444 3.04535 3.40884C3.55345 2.89323 3.87092 2.22004 3.94553 1.5H13.2193C13.2923 2.25708 13.6234 2.96606 14.1569 3.50813C14.6904 4.05021 15.3941 4.39244 16.1499 4.4775V5.4375C16.1499 5.53696 16.1894 5.63234 16.2597 5.70267C16.3301 5.77299 16.4254 5.8125 16.5249 5.8125C16.6244 5.8125 16.7197 5.77299 16.7901 5.70267C16.8604 5.63234 16.8999 5.53696 16.8999 5.4375V1.125C16.8999 1.02554 16.8604 0.930161 16.7901 0.859835C16.7197 0.789509 16.6244 0.75 16.5249 0.75H0.774902C0.675446 0.75 0.580064 0.789509 0.509737 0.859835C0.439411 0.930161 0.399902 1.02554 0.399902 1.125V10.125C0.399902 10.2245 0.439411 10.3198 0.509737 10.3902C0.580064 10.4605 0.675446 10.5 0.774902 10.5H7.5249C7.62436 10.5 7.71974 10.4605 7.79007 10.3902C7.86039 10.3198 7.8999 10.2245 7.8999 10.125C7.8999 10.0255 7.86039 9.93016 7.79007 9.85983C7.71974 9.78951 7.62436 9.75 7.5249 9.75ZM16.1499 3.72C15.5943 3.63927 15.0805 3.37833 14.6875 2.97726C14.2946 2.57619 14.0442 2.05718 13.9749 1.5H16.1499V3.72ZM3.18803 1.5C3.12044 2.02158 2.88507 2.50703 2.51743 2.88313C2.14978 3.25922 1.66981 3.50557 1.1499 3.585V1.5H3.18803ZM1.1499 7.71937C1.66 7.79686 2.1318 8.03592 2.49596 8.40143C2.86012 8.76694 3.09743 9.23961 3.17303 9.75H1.1499V7.71937ZM7.5249 12H0.774902C0.675446 12 0.580064 12.0395 0.509737 12.1098C0.439411 12.1802 0.399902 12.2755 0.399902 12.375C0.399902 12.4745 0.439411 12.5698 0.509737 12.6402C0.580064 12.7105 0.675446 12.75 0.774902 12.75H7.5249C7.62436 12.75 7.71974 12.7105 7.79007 12.6402C7.86039 12.5698 7.8999 12.4745 7.8999 12.375C7.8999 12.2755 7.86039 12.1802 7.79007 12.1098C7.71974 12.0395 7.62436 12 7.5249 12ZM7.5249 14.25H0.774902C0.675446 14.25 0.580064 14.2895 0.509737 14.3598C0.439411 14.4302 0.399902 14.5255 0.399902 14.625C0.399902 14.7245 0.439411 14.8198 0.509737 14.8902C0.580064 14.9605 0.675446 15 0.774902 15H7.5249C7.62436 15 7.71974 14.9605 7.79007 14.8902C7.86039 14.8198 7.8999 14.7245 7.8999 14.625C7.8999 14.5255 7.86039 14.4302 7.79007 14.3598C7.71974 14.2895 7.62436 14.25 7.5249 14.25Z" fill="black"/>
</svg>
