<svg width="24" height="14" viewBox="0 0 24 14" fill="none" xmlns="http://www.w3.org/2000/svg">
<path d="M23.667 7.00101C23.667 7.55301 23.219 8.00101 22.667 8.00101H3.74836L7.37499 11.6276C7.76566 12.0183 7.76566 12.6517 7.37499 13.0423C7.18032 13.237 6.92429 13.3356 6.66829 13.3356C6.41229 13.3356 6.15625 13.2383 5.96158 13.0423L0.628246 7.70902C0.536246 7.61702 0.463092 7.50649 0.412426 7.38382C0.311092 7.13982 0.311092 6.86382 0.412426 6.61982C0.463092 6.49716 0.536246 6.3863 0.628246 6.2943L5.96158 0.960969C6.35225 0.570302 6.98563 0.570302 7.37629 0.960969C7.76696 1.35164 7.76696 1.98502 7.37629 2.37568L3.74967 6.00231H22.667C23.219 6.00098 23.667 6.44901 23.667 7.00101Z" fill="#212121"/>
</svg>
