<svg width="16" height="15" viewBox="0 0 16 15" fill="none" xmlns="http://www.w3.org/2000/svg">
<path d="M14.9608 6.94414H2.07007V1.5107C2.07007 1.14332 2.41169 0.82104 2.80161 0.82104H4.1487C4.52899 0.82104 4.83513 1.13042 4.83836 1.50747C4.20994 1.66539 3.68143 2.24547 3.68143 2.85776V3.72145C3.68143 3.89871 3.82645 4.04373 4.00371 4.04373H6.25957C6.43682 4.04373 6.58184 3.89871 6.58184 3.72145V2.85779C6.58184 2.23581 6.08877 1.66539 5.48292 1.5107C5.48292 0.775932 4.88673 0.176514 4.14873 0.176514H2.80164C2.0572 0.176514 1.42554 0.788833 1.42554 1.5107V6.94414C0.893802 6.94091 0.461973 7.37277 0.45874 7.90451C0.45874 8.18165 0.574757 8.44269 0.781018 8.62638V10.3151C0.781018 11.6267 1.36433 12.7514 2.30857 13.4829L1.78006 14.5335C1.69948 14.6914 1.76396 14.8848 1.92508 14.9654C2.083 15.0459 2.27636 14.9815 2.35691 14.8203L2.85321 13.831C3.5042 14.179 4.23251 14.3595 4.97051 14.353H11.4159C12.1539 14.3595 12.8822 14.179 13.5332 13.831L14.0295 14.8203C14.11 14.9783 14.3034 15.0427 14.4613 14.9654C14.6192 14.888 14.6837 14.6914 14.6063 14.5335L14.0778 13.4797C15.022 12.7514 15.6054 11.6234 15.6054 10.3118V8.62315C15.8084 8.44589 15.9276 8.18485 15.9276 7.91095C15.9276 7.376 15.4958 6.94414 14.9608 6.94414ZM5.16064 2.11012C5.54413 2.11012 5.93732 2.48718 5.93732 2.85779V3.3992H4.32596V2.85779C4.32596 2.50008 4.76102 2.11012 5.16064 2.11012ZM14.9608 10.3151C14.9608 12.2519 13.4365 13.7118 11.4159 13.7118H4.97048C2.94986 13.7118 1.42554 12.2519 1.42554 10.3151V8.87778H14.9608V10.3151ZM14.9608 8.23323H1.43521C1.27409 8.23323 1.12907 8.11721 1.1065 7.95929C1.0775 7.75949 1.23218 7.58867 1.42554 7.58867H14.9511C15.1123 7.58867 15.2573 7.70469 15.2799 7.86261C15.3089 8.06243 15.1542 8.23323 14.9608 8.23323Z" fill="#212121"/>
</svg>
