<svg width="21" height="14" viewBox="0 0 21 14" fill="none" xmlns="http://www.w3.org/2000/svg">
<path d="M3.30593 11.8217H1.81809C1.04412 11.8198 0.417631 11.1927 0.415771 10.4194V1.76004C0.415771 0.860273 1.14389 0.127197 2.04861 0.127197H2.05667C2.95954 0.134633 3.68641 0.870807 3.68331 1.77367V7.57197C3.68331 7.77894 3.51538 7.94687 3.30841 7.94687C3.10144 7.94687 2.93351 7.77894 2.93351 7.57197V1.77367C2.93661 1.28351 2.54249 0.882581 2.05233 0.877623H2.04923C1.56155 0.877623 1.16682 1.27298 1.16682 1.76004V10.4194C1.16682 10.7794 1.4593 11.0719 1.81933 11.0719H3.30717C3.51414 11.0719 3.68208 11.2398 3.68208 11.4468C3.68208 11.6538 3.5129 11.8217 3.30593 11.8217Z" fill="#212121"/>
<path d="M20.0092 11.8217H1.81802C1.61105 11.8217 1.44312 11.6537 1.44312 11.4468C1.44312 11.2398 1.61105 11.0718 1.81802 11.0718H19.6343C19.6312 8.05527 19.6423 8.20771 19.625 8.14017C19.5655 7.94187 19.6777 7.73242 19.876 7.67293C20.0835 7.61034 20.2992 7.73614 20.3488 7.94497C20.412 8.17549 20.3723 8.0373 20.3841 11.4468C20.3841 11.6543 20.2162 11.8217 20.0092 11.8217ZM8.41445 7.94683H3.30524C3.09827 7.94683 2.93033 7.7789 2.93033 7.57192C2.93033 7.36495 3.09827 7.19702 3.30524 7.19702H8.41445C8.62143 7.19702 8.78936 7.36495 8.78936 7.57192C8.78936 7.7789 8.62205 7.94683 8.41445 7.94683Z" fill="#212121"/>
<path d="M6.99418 7.94691C6.78721 7.94691 6.61928 7.77897 6.61928 7.572C6.61804 6.249 5.54538 5.17634 4.22237 5.1751H3.30588C3.0989 5.1751 2.93097 5.00717 2.93097 4.8002C2.93097 4.59322 3.0989 4.42529 3.30588 4.42529H4.22237C5.95994 4.42715 7.36722 5.83505 7.3697 7.57262C7.3697 7.77897 7.20177 7.94691 6.99418 7.94691ZM20.0092 9.88401H8.41447C8.2075 9.88401 8.03957 9.71608 8.03957 9.5091V5.25566C8.03957 5.04869 8.2075 4.88075 8.41447 4.88075H16.8408C18.7965 4.88323 20.3816 6.46836 20.3841 8.42406V9.5091C20.3841 9.71608 20.2162 9.88401 20.0092 9.88401ZM8.79 9.1342H19.6343V8.42406C19.6331 6.8823 18.3832 5.63242 16.8408 5.63056H8.79V9.1342ZM3.68574 13.8729H2.15762C1.95065 13.8729 1.78271 13.7049 1.78271 13.498V11.4474C1.78271 11.2405 1.95065 11.0725 2.15762 11.0725C2.36459 11.0725 2.53252 11.2405 2.53252 11.4474V13.123H3.42671L4.11827 11.313C4.19201 11.119 4.4089 11.0211 4.60347 11.0949C4.79743 11.1686 4.89534 11.3855 4.8216 11.5801L4.03957 13.6312C3.98442 13.7774 3.84251 13.8741 3.68574 13.8729ZM18.6416 13.8729H17.1141C16.9585 13.8729 16.8191 13.7768 16.764 13.6312L15.9819 11.5801C15.9206 11.3824 16.0315 11.1723 16.2292 11.111C16.4089 11.0552 16.6022 11.1413 16.6809 11.3124L17.3706 13.1218H18.2648V11.4468C18.2648 11.2399 18.4328 11.0719 18.6397 11.0719C18.8467 11.0719 19.0146 11.2399 19.0146 11.4468V13.4973C19.0152 13.7043 18.8479 13.8716 18.6416 13.8729Z" fill="#212121"/>
</svg>
