<svg width="20" height="16" viewBox="0 0 20 16" fill="none" xmlns="http://www.w3.org/2000/svg">
<path d="M18.5 8.64156L17.7711 10.6525M17.7711 10.6525L16.75 13.4678H12.8125L11.9375 10.6525H17.7711ZM13.6875 15.0846L13.6962 15.0758M16.3125 15.0846L16.3212 15.0758M7.125 7.435C8.05326 7.435 8.9435 7.09601 9.59987 6.49262C10.2563 5.88922 10.625 5.07083 10.625 4.2175C10.625 3.36417 10.2563 2.54578 9.59987 1.94238C8.9435 1.33899 8.05326 1 7.125 1C6.19674 1 5.3065 1.33899 4.65013 1.94238C3.99375 2.54578 3.625 3.36417 3.625 4.2175C3.625 5.07083 3.99375 5.88922 4.65013 6.49262C5.3065 7.09601 6.19674 7.435 7.125 7.435Z" stroke="#A8A2A2" stroke-width="1.25" stroke-linecap="round" stroke-linejoin="round"/>
<path d="M1 13.0656C1.00002 12.0088 1.3236 10.9732 1.93374 10.0775C2.54389 9.18172 3.41595 8.46191 4.4502 8.00037C5.48445 7.53883 6.63912 7.3542 7.78215 7.46759C8.92518 7.58099 10.0104 7.98782 10.9137 8.64157" stroke="#A8A2A2" stroke-width="1.25" stroke-linecap="round" stroke-linejoin="round"/>
</svg>
