<svg width="20" height="20" viewBox="0 0 20 20" fill="none" xmlns="http://www.w3.org/2000/svg">
<path d="M17 6.25H15.75V3.33301C15.75 1.37401 14.626 0.25 12.667 0.25H3.33301C1.37401 0.25 0.25 1.37401 0.25 3.33301V15C0.25 15.303 0.432891 15.577 0.712891 15.693C0.805891 15.732 0.903 15.75 1 15.75C1.195 15.75 1.38703 15.674 1.53003 15.53L3.64307 13.416H6.24902V15C6.24902 16.748 7.25102 17.75 8.99902 17.75H16.688L18.468 19.53C18.612 19.674 18.803 19.75 18.998 19.75C19.095 19.75 19.1919 19.731 19.2849 19.693C19.5649 19.577 19.748 19.303 19.748 19V9C19.75 7.252 18.748 6.25 17 6.25ZM3.33301 11.917C3.13401 11.917 2.94298 11.996 2.80298 12.137L1.75 13.1899V3.33496C1.75 2.19496 2.19301 1.75195 3.33301 1.75195H12.667C13.807 1.75195 14.25 2.19596 14.25 3.33496V10.335C14.25 11.474 13.807 11.918 12.667 11.918H3.33301V11.917ZM18.25 17.189L17.53 16.469C17.389 16.328 17.199 16.249 17 16.249H9C8.089 16.249 7.75 15.91 7.75 14.999V13.416H12.667C14.626 13.416 15.75 12.292 15.75 10.333V7.75H17C17.911 7.75 18.25 8.089 18.25 9V17.189Z" fill="#9DB2CE"/>
</svg>
