<svg width="25" height="24" viewBox="0 0 25 24" fill="none" xmlns="http://www.w3.org/2000/svg">
<g clip-path="url(#clip0_458_1653)">
<path d="M24.0482 23.2968H21.0754V20.55C21.0754 20.3558 20.9181 20.1984 20.7239 20.1984C20.5297 20.1984 20.3723 20.3558 20.3723 20.55V23.2968H11.0298V16.2631C11.0298 16.2076 11.0749 16.1625 11.1304 16.1625H20.2716C20.3271 16.1625 20.3722 16.2077 20.3722 16.2631V18.9092C20.3722 19.1034 20.5296 19.2608 20.7238 19.2608C20.918 19.2608 21.0753 19.1034 21.0753 18.9092V16.2631C21.0753 15.8199 20.7147 15.4593 20.2715 15.4593H16.0526V11.9528C16.0526 11.6944 15.9395 11.4503 15.7424 11.2833L13.4812 9.3664V7.46666C13.4812 6.93674 13.0501 6.50567 12.5203 6.50567H12.4263V4.91174C12.4263 4.49821 12.0899 4.16179 11.6764 4.16179H11.0298V3.04021C11.0298 2.6241 10.6913 2.28557 10.2751 2.28557H10.1998V0.351562C10.1998 0.258322 10.1628 0.168901 10.0968 0.10297C10.0309 0.0370394 9.94148 0 9.84824 0C9.755 0 9.66558 0.0370394 9.59965 0.10297C9.53372 0.168901 9.49668 0.258322 9.49668 0.351562V2.28557H9.35104C8.97374 2.28557 8.66671 2.59256 8.66671 2.9699V4.16179H7.94981C7.57509 4.16179 7.27017 4.46666 7.27017 4.84143V6.50567H7.10592C6.61476 6.50567 6.21525 6.90519 6.21525 7.39634V12.0417H3.59007C3.17649 12.0417 2.84002 12.3782 2.84002 12.7918V23.2968H0.751464C0.557308 23.2968 0.399902 23.4542 0.399902 23.6484C0.399902 23.8426 0.557308 24 0.751464 24H24.0482C24.2424 24 24.3998 23.8426 24.3998 23.6484C24.3998 23.4542 24.2424 23.2968 24.0482 23.2968ZM13.4812 10.2882L15.2878 11.8197C15.3071 11.8361 15.3226 11.8565 15.3333 11.8794C15.3439 11.9024 15.3494 11.9274 15.3494 11.9528V15.4593H13.4812V10.2882ZM6.2152 23.2968H3.54319C3.54319 12.2249 3.52032 12.7448 3.59007 12.7448H6.2152V23.2968ZM9.36988 2.98874C10.3181 2.98874 10.3266 2.9706 10.3266 3.04021V4.16174H9.36988V2.98874ZM7.97329 4.86491C11.9034 4.86491 11.7231 4.84485 11.7231 4.91169V6.50563H7.97329V4.86491ZM10.3266 16.2631V23.2968H6.91837V7.3963C6.91837 7.29289 7.00247 7.2088 7.10587 7.2088H12.5203C12.6624 7.2088 12.7781 7.32449 12.7781 7.46661V15.4593H11.1305C10.6873 15.4593 10.3266 15.8198 10.3266 16.2631Z" fill="#131318"/>
<path d="M11.6139 8.38079H8.0512C7.85704 8.38079 7.69963 8.53815 7.69963 8.73235C7.69963 8.92656 7.85704 9.08392 8.0512 9.08392H11.6139C11.8081 9.08392 11.9655 8.92656 11.9655 8.73235C11.9655 8.53815 11.8081 8.38079 11.6139 8.38079ZM11.6139 10.2112H8.0512C7.85704 10.2112 7.69963 10.3686 7.69963 10.5628C7.69963 10.757 7.85704 10.9143 8.0512 10.9143H11.6139C11.8081 10.9143 11.9655 10.757 11.9655 10.5628C11.9655 10.3686 11.8081 10.2112 11.6139 10.2112ZM11.6139 12.0417H8.0512C7.85704 12.0417 7.69963 12.1991 7.69963 12.3933C7.69963 12.5875 7.85704 12.7449 8.0512 12.7449H11.6139C11.8081 12.7449 11.9655 12.5875 11.9655 12.3933C11.9655 12.1991 11.8081 12.0417 11.6139 12.0417ZM5.29734 13.8722H4.33228C4.13812 13.8722 3.98071 14.0296 3.98071 14.2238C3.98071 14.418 4.13812 14.5753 4.33228 14.5753H5.29734C5.49149 14.5753 5.6489 14.418 5.6489 14.2238C5.6489 14.0296 5.49149 13.8722 5.29734 13.8722ZM5.29734 15.7026H4.33228C4.13812 15.7026 3.98071 15.86 3.98071 16.0542C3.98071 16.2484 4.13812 16.4057 4.33228 16.4057H5.29734C5.49149 16.4057 5.6489 16.2484 5.6489 16.0542C5.6489 15.86 5.49149 15.7026 5.29734 15.7026ZM5.43388 17.5331H4.33228C4.13812 17.5331 3.98071 17.6905 3.98071 17.8847C3.98071 18.0789 4.13812 18.2363 4.33228 18.2363H5.43388C5.62804 18.2363 5.78545 18.0789 5.78545 17.8847C5.78545 17.6905 5.62804 17.5331 5.43388 17.5331ZM5.43388 19.3636H4.33228C4.13812 19.3636 3.98071 19.521 3.98071 19.7152C3.98071 19.9094 4.13812 20.0667 4.33228 20.0667H5.43388C5.62804 20.0667 5.78545 19.9094 5.78545 19.7152C5.78545 19.521 5.62804 19.3636 5.43388 19.3636ZM5.43388 21.1941H4.33228C4.23904 21.1941 4.14961 21.2311 4.08368 21.297C4.01775 21.363 3.98071 21.4524 3.98071 21.5456C3.98071 21.6389 4.01775 21.7283 4.08368 21.7942C4.14961 21.8602 4.23904 21.8972 4.33228 21.8972H5.43388C5.52712 21.8972 5.61655 21.8602 5.68248 21.7942C5.74841 21.7283 5.78545 21.6389 5.78545 21.5456C5.78545 21.4524 5.74841 21.363 5.68248 21.297C5.61655 21.2311 5.52712 21.1941 5.43388 21.1941ZM11.6139 13.8722H8.0512C7.85704 13.8722 7.69963 14.0296 7.69963 14.2238C7.69963 14.418 7.85704 14.5753 8.0512 14.5753H11.6139C11.8081 14.5753 11.9655 14.418 11.9655 14.2238C11.9655 14.0296 11.8081 13.8722 11.6139 13.8722ZM9.01626 15.7026H8.0512C7.85704 15.7026 7.69963 15.86 7.69963 16.0542C7.69963 16.2484 7.85704 16.4057 8.0512 16.4057H9.01621C9.21037 16.4057 9.36778 16.2484 9.36778 16.0542C9.36778 15.86 9.21042 15.7026 9.01626 15.7026ZM9.15285 17.5331H8.0512C7.85704 17.5331 7.69963 17.6905 7.69963 17.8847C7.69963 18.0789 7.85704 18.2363 8.0512 18.2363H9.15281C9.34696 18.2363 9.50437 18.0789 9.50437 17.8847C9.50437 17.6905 9.34701 17.5331 9.15285 17.5331ZM9.15285 19.3636H8.0512C7.85704 19.3636 7.69963 19.521 7.69963 19.7152C7.69963 19.9094 7.85704 20.0667 8.0512 20.0667H9.15281C9.34696 20.0667 9.50437 19.9094 9.50437 19.7152C9.50437 19.521 9.34701 19.3636 9.15285 19.3636ZM9.15285 21.1941H8.0512C7.95796 21.1941 7.86854 21.2311 7.80261 21.297C7.73667 21.363 7.69963 21.4524 7.69963 21.5456C7.69963 21.6389 7.73667 21.7283 7.80261 21.7942C7.86854 21.8602 7.95796 21.8972 8.0512 21.8972H9.15281C9.24605 21.8972 9.33547 21.8602 9.4014 21.7942C9.46733 21.7283 9.50437 21.6389 9.50437 21.5456C9.50438 21.4995 9.49529 21.4538 9.47763 21.4111C9.45996 21.3684 9.43407 21.3297 9.40143 21.297C9.36879 21.2644 9.33003 21.2385 9.28738 21.2208C9.24473 21.2032 9.19902 21.1941 9.15285 21.1941ZM18.902 17.5331H12.5C12.3058 17.5331 12.1484 17.6905 12.1484 17.8847C12.1484 18.0789 12.3058 18.2363 12.5 18.2363H18.902C19.0962 18.2363 19.2536 18.0789 19.2536 17.8847C19.2536 17.6905 19.0963 17.5331 18.902 17.5331ZM18.902 19.3636H12.5C12.3058 19.3636 12.1484 19.521 12.1484 19.7152C12.1484 19.9094 12.3058 20.0667 12.5 20.0667H18.902C19.0962 20.0667 19.2536 19.9094 19.2536 19.7152C19.2536 19.521 19.0963 19.3636 18.902 19.3636ZM18.902 21.1941H12.5C12.4538 21.1941 12.4081 21.2032 12.3655 21.2208C12.3228 21.2385 12.2841 21.2644 12.2514 21.297C12.2188 21.3297 12.1929 21.3684 12.1752 21.4111C12.1575 21.4537 12.1484 21.4995 12.1484 21.5456C12.1484 21.7398 12.3058 21.8972 12.5 21.8972H18.902C19.0962 21.8972 19.2536 21.7398 19.2536 21.5456C19.2536 21.4995 19.2445 21.4537 19.2268 21.4111C19.2092 21.3684 19.1833 21.3297 19.1506 21.297C19.118 21.2644 19.0792 21.2385 19.0366 21.2208C18.9939 21.2031 18.9482 21.1941 18.902 21.1941ZM18.3191 1.14282C16.7152 1.14282 15.4103 2.44773 15.4103 4.05165C15.4103 5.29928 16.2042 6.40637 17.3859 6.80659C17.4297 6.8214 17.4759 6.82746 17.522 6.82441C17.568 6.82135 17.613 6.80926 17.6544 6.78881C17.6958 6.76836 17.7328 6.73996 17.7632 6.70522C17.7936 6.67049 17.8169 6.6301 17.8317 6.58637C17.8465 6.54264 17.8526 6.49642 17.8495 6.45035C17.8465 6.40428 17.8344 6.35926 17.8139 6.31787C17.7935 6.27647 17.7651 6.23951 17.7303 6.20909C17.6956 6.17867 17.6552 6.1554 17.6115 6.14059C17.1747 5.99283 16.7952 5.7118 16.5265 5.33706C16.2578 4.96232 16.1133 4.51274 16.1135 4.0516C16.1135 2.83538 17.1029 1.84595 18.3191 1.84595C19.5353 1.84595 20.5248 2.83534 20.5248 4.0516C20.5249 4.51274 20.3805 4.96231 20.1118 5.33705C19.843 5.71179 19.4636 5.99282 19.0267 6.14059C18.983 6.1554 18.9426 6.17867 18.9079 6.20909C18.8732 6.23951 18.8448 6.27647 18.8243 6.31787C18.8039 6.35926 18.7918 6.40428 18.7887 6.45035C18.7857 6.49642 18.7917 6.54264 18.8065 6.58637C18.8301 6.65599 18.8749 6.71647 18.9346 6.75933C18.9943 6.80218 19.066 6.82525 19.1395 6.82529C19.1769 6.82529 19.2149 6.81929 19.2523 6.80663C20.434 6.40646 21.2279 5.29937 21.2279 4.05165C21.2279 2.44773 19.923 1.14282 18.3191 1.14282Z" fill="#131318"/>
</g>
<defs>
<clipPath id="clip0_458_1653">
<rect width="24" height="24" fill="white" transform="translate(0.399902)"/>
</clipPath>
</defs>
</svg>
