<svg width="14" height="13" viewBox="0 0 14 13" fill="none" xmlns="http://www.w3.org/2000/svg">
<path d="M7.2998 13C3.71566 13 0.799805 10.0841 0.799805 6.5C0.799805 2.91586 3.71566 0 7.2998 0C10.8839 0 13.7998 2.91586 13.7998 6.5C13.7998 10.0841 10.8839 13 7.2998 13ZM7.2998 0.928535C4.22774 0.928535 1.72834 3.42794 1.72834 6.5C1.72834 9.57206 4.22774 12.0715 7.2998 12.0715C10.3719 12.0715 12.8713 9.57206 12.8713 6.5C12.8713 3.42794 10.3719 0.928535 7.2998 0.928535Z" fill="#47494C" fill-opacity="0.9"/>
<path d="M9.62133 9.28575C9.5025 9.28575 9.38367 9.24043 9.29303 9.14966L4.65022 4.50685C4.46881 4.32544 4.46881 4.03167 4.65022 3.85038C4.83151 3.66906 5.12538 3.66896 5.3067 3.85038L9.9495 8.49318C10.1309 8.6746 10.1309 8.96837 9.9495 9.14966C9.90648 9.19286 9.85533 9.22713 9.79901 9.25049C9.74269 9.27385 9.6823 9.28583 9.62133 9.28575Z" fill="#47494C" fill-opacity="0.9"/>
<path d="M4.9784 9.28579C4.85957 9.28579 4.74087 9.24047 4.65022 9.14969C4.46881 8.96841 4.46881 8.67453 4.65022 8.49322L9.29303 3.85042C9.47444 3.669 9.76821 3.669 9.9495 3.85042C10.1308 4.03171 10.1309 4.32558 9.9495 4.50689L5.3067 9.14969C5.26365 9.19291 5.21248 9.22718 5.15614 9.25053C5.0998 9.27389 5.03939 9.28587 4.9784 9.28579Z" fill="#47494C" fill-opacity="0.9"/>
</svg>
