<svg width="20" height="20" viewBox="0 0 20 20" fill="none" xmlns="http://www.w3.org/2000/svg">
<path d="M17.9487 13.0769V16.1538C17.9487 18.6338 16.5826 20 14.1026 20H3.84615C1.36615 20 0 18.6338 0 16.1538V5.89744C0 3.41744 1.36615 2.05128 3.84615 2.05128H6.92308C7.34769 2.05128 7.69231 2.3959 7.69231 2.82051C7.69231 3.24513 7.34769 3.58974 6.92308 3.58974H3.84615C2.22872 3.58974 1.53846 4.28 1.53846 5.89744V16.1538C1.53846 17.7713 2.22872 18.4615 3.84615 18.4615H14.1026C15.72 18.4615 16.4103 17.7713 16.4103 16.1538V13.0769C16.4103 12.6523 16.7549 12.3077 17.1795 12.3077C17.6041 12.3077 17.9487 12.6523 17.9487 13.0769ZM20 3.90359C19.999 4.50564 19.7641 5.07077 19.3374 5.49539L10.1446 14.6472C9.99999 14.7908 9.80513 14.8718 9.60205 14.8718H5.89744C5.47282 14.8718 5.12821 14.5272 5.12821 14.1026V10.399C5.12821 10.1959 5.2082 9.99999 5.35281 9.8564L14.5046 0.66256C14.9282 0.235893 15.4943 0.00102564 16.0964 0H16.0995C16.7005 0 17.2657 0.233852 17.6913 0.659493L19.3415 2.30976C19.7661 2.7354 20.001 3.30154 20 3.90359ZM15.761 6.88514L13.1149 4.23897L6.66667 10.7169V13.3344H9.2841L15.761 6.88514ZM18.4615 3.90152C18.4615 3.71075 18.3877 3.53129 18.2533 3.39694L16.6031 1.74667C16.4687 1.61231 16.2893 1.53846 16.0995 1.53846H16.0984C15.9077 1.53846 15.7292 1.61334 15.5949 1.7477L14.201 3.14769L16.8523 5.79897L18.2523 4.40514C18.3867 4.27181 18.4605 4.09229 18.4615 3.90152Z" fill="#212121"/>
</svg>
