<svg width="24" height="24" viewBox="0 0 24 24" fill="none" xmlns="http://www.w3.org/2000/svg">
<g clip-path="url(#clip0_1_4150)">
<g clip-path="url(#clip1_1_4150)">
<path d="M16.2375 22.7625H0.375C0.1875 22.7625 0 22.6125 0 22.3875C0 22.1625 0.15 22.0125 0.375 22.0125H16.2375C16.425 22.0125 16.6125 22.1625 16.6125 22.3875C16.6125 22.6125 16.425 22.7625 16.2375 22.7625Z" fill="black"/>
<path d="M16.2376 22.7625H2.6626C2.4751 22.7625 2.2876 22.6125 2.2876 22.3875V12.825C2.2876 12.6375 2.4376 12.45 2.6626 12.45C2.8876 12.45 3.0376 12.6 3.0376 12.825V22.0125H16.2376C16.4251 22.0125 16.6126 22.1625 16.6126 22.3875C16.6126 22.6125 16.4251 22.7625 16.2376 22.7625Z" fill="black"/>
<path d="M1.6875 13.575C1.2375 13.575 0.825 13.425 0.4875 13.0875C0.1875 12.7875 0 12.3375 0 11.8875C0 11.475 0.1875 11.0625 0.45 10.725L9.0375 2.13749C10.2375 0.937488 12.15 0.937488 13.35 2.13749L17.025 5.81249C17.175 5.96249 17.175 6.18749 17.025 6.33749C16.875 6.48749 16.65 6.48749 16.5 6.33749L12.825 2.66249C11.925 1.76249 10.4625 1.76249 9.5625 2.66249L1.0125 11.2125C0.8625 11.4 0.75 11.6625 0.75 11.8875C0.75 12.075 0.7875 12.3375 1.0125 12.5625C1.3875 12.9375 2.025 12.9375 2.4 12.5625L10.95 4.01249C11.1 3.86249 11.325 3.86249 11.475 4.01249L14.5875 7.12499C14.7375 7.27499 14.7375 7.49999 14.5875 7.64999C14.4375 7.79999 14.2125 7.79999 14.0625 7.64999L11.2125 4.79999L2.925 13.0875C2.5875 13.425 2.1375 13.575 1.6875 13.575ZM12.3375 22.7625H7.0125C6.825 22.7625 6.6375 22.6125 6.6375 22.3875V15.5625C6.6375 14.9625 7.125 14.4375 7.7625 14.4375H11.625C12.225 14.4375 12.7125 14.9625 12.7125 15.5625V22.3875C12.7125 22.575 12.525 22.7625 12.3375 22.7625ZM7.3875 22.0125H11.9625V15.5625C11.9625 15.3375 11.775 15.1875 11.625 15.1875H7.7625C7.5375 15.1875 7.3875 15.375 7.3875 15.5625V22.0125ZM18.5625 22.725C18.075 22.725 17.625 22.4625 17.3625 22.05C16.05 19.875 13.0875 14.625 13.0875 12.375C13.0875 9.37499 15.525 6.93749 18.525 6.93749C21.525 6.93749 24 9.37499 24 12.375C24 13.95 22.575 17.175 19.8 22.05C19.5 22.4625 19.05 22.725 18.5625 22.725ZM18.525 7.68749C15.9375 7.68749 13.8375 9.78749 13.8375 12.375C13.8375 14.475 17.025 20.025 18 21.675C18.1125 21.8625 18.3375 22.0125 18.6 22.0125C18.8625 22.0125 19.05 21.9 19.2 21.675C22.5375 15.7875 23.25 13.35 23.25 12.375C23.25 9.78749 21.15 7.68749 18.525 7.68749Z" fill="black"/>
<path d="M18.5625 15.8625C16.65 15.8625 15.075 14.2875 15.075 12.375C15.075 10.4625 16.65 8.88751 18.5625 8.88751C20.475 8.88751 22.05 10.4625 22.05 12.375C22.05 14.2875 20.475 15.8625 18.5625 15.8625ZM18.5625 9.63751C17.0625 9.63751 15.825 10.875 15.825 12.375C15.825 13.875 17.0625 15.1125 18.5625 15.1125C20.0625 15.1125 21.3 13.875 21.3 12.375C21.3 10.875 20.0625 9.63751 18.5625 9.63751ZM8.13745 19.275C7.94995 19.275 7.76245 19.125 7.76245 18.9V18.4125C7.76245 18.225 7.91245 18.0375 8.13745 18.0375C8.36245 18.0375 8.51245 18.1875 8.51245 18.4125V18.9C8.51245 19.0875 8.32495 19.275 8.13745 19.275Z" fill="black"/>
</g>
</g>
<defs>
<clipPath id="clip0_1_4150">
<rect width="24" height="24" fill="white"/>
</clipPath>
<clipPath id="clip1_1_4150">
<rect width="24" height="24" fill="white"/>
</clipPath>
</defs>
</svg>
