<svg width="19" height="24" viewBox="0 0 19 24" fill="none" xmlns="http://www.w3.org/2000/svg">
<path d="M9.3999 0C4.55875 0 0.634277 3.92691 0.634277 8.77036C0.634277 14.1025 4.28781 15.359 6.20467 18.6282C7.9892 21.6705 7.99065 24 9.3999 24C10.8613 24 10.7691 21.8299 12.5951 18.6283C14.4207 15.4261 18.1655 14.1025 18.1655 8.77036C18.1655 3.92691 14.2411 0 9.3999 0ZM9.3999 12.1313C7.58884 12.1313 6.12062 10.6624 6.12062 8.85056C6.12062 7.94414 6.48765 7.1242 7.08123 6.53025C7.67476 5.93677 8.49437 5.56927 9.3999 5.56927C11.211 5.56927 12.6787 7.03823 12.6787 8.85056C12.6787 10.6624 11.211 12.1313 9.3999 12.1313Z" fill="#4CAF50"/>
<path d="M9.39999 0C9.15601 0 8.91451 0.0104531 8.67554 0.03C13.1777 0.398625 16.7167 4.17098 16.7167 8.77036C16.7167 14.1025 12.9719 15.4261 11.1463 18.6282C9.70004 21.164 9.45699 23.0525 8.69237 23.7284C8.8884 23.9049 9.11551 24 9.39999 24C10.8614 24 10.7692 21.8299 12.5952 18.6283C14.4208 15.4261 18.1656 14.1025 18.1656 8.77036C18.1656 3.92691 14.2411 0 9.39999 0Z" fill="#43A047"/>
<path d="M7.08109 6.53046L1.318 12.2967C0.896449 11.3361 0.634277 10.1997 0.634277 8.77052C0.634277 6.36879 1.59925 4.1929 3.16196 2.60913L7.08109 6.53046Z" fill="#F44336"/>
<path d="M11.7416 11.147C12.3215 10.5552 12.679 9.7446 12.679 8.85046C12.679 7.03813 11.2109 5.56921 9.40011 5.56921C8.49444 5.56921 7.67474 5.93657 7.0813 6.53034L12.8868 0.72168C14.9619 1.62238 16.6198 3.30304 17.4923 5.39399L11.7418 11.1477L11.7416 11.147Z" fill="#42A5F5"/>
<path d="M12.8866 0.72168L12.3972 1.21134C14.3442 2.36015 15.8086 4.24007 16.4129 6.4739L17.4922 5.39399C16.6197 3.30299 14.9617 1.62238 12.8866 0.72168Z" fill="#2196F3"/>
<path d="M11.7417 11.1476L5.41237 17.4804C4.03621 15.7459 2.27057 14.4708 1.31812 12.2965L7.08121 6.53027C6.48777 7.12404 6.1206 7.94421 6.1206 8.8504C6.1206 10.6622 7.58873 12.1311 9.40002 12.1311C10.3172 12.1311 11.1464 11.7543 11.7415 11.1469L11.7417 11.1476Z" fill="#FFC107"/>
<path d="M12.8868 0.721687L7.08123 6.53039L3.16211 2.60911C4.75155 0.998156 6.95941 0 9.40009 0C10.6392 0 11.8185 0.257437 12.8868 0.721687Z" fill="#1E88E5"/>
<path d="M9.40004 0C9.1561 0 8.9146 0.0104062 8.67568 0.03L8.67554 0.0300469C9.98957 0.137025 11.2622 0.540942 12.3974 1.21134L12.8867 0.721688C11.8184 0.257437 10.6391 0 9.40004 0Z" fill="#1976D2"/>
</svg>
