<svg width="17" height="10" viewBox="0 0 17 10" fill="none" xmlns="http://www.w3.org/2000/svg">
<path d="M0.916667 5.63063C1.42293 5.63063 1.83333 5.2705 1.83333 4.82626C1.83333 4.38201 1.42293 4.02188 0.916667 4.02188C0.410406 4.02188 0 4.38201 0 4.82626C0 5.2705 0.410406 5.63063 0.916667 5.63063Z" fill="#ADA8A8"/>
<path d="M15.6384 4.02188H4.52841C4.05253 4.02188 3.66675 4.3604 3.66675 4.77799V4.87452C3.66675 5.29211 4.05253 5.63063 4.52841 5.63063H15.6384C16.1143 5.63063 16.5001 5.29211 16.5001 4.87452V4.77799C16.5001 4.3604 16.1143 4.02188 15.6384 4.02188Z" fill="#A8A2A2"/>
<path d="M15.6383 8.04373H0.861667C0.385781 8.04373 0 8.38226 0 8.79984V8.89637C0 9.31396 0.385781 9.65248 0.861667 9.65248H15.6383C16.1142 9.65248 16.5 9.31396 16.5 8.89637V8.79984C16.5 8.38226 16.1142 8.04373 15.6383 8.04373Z" fill="#A8A2A2"/>
<path d="M15.6383 0H0.861667C0.385781 0 0 0.338523 0 0.756113V0.852637C0 1.27023 0.385781 1.60875 0.861667 1.60875H15.6383C16.1142 1.60875 16.5 1.27023 16.5 0.852637V0.756113C16.5 0.338523 16.1142 0 15.6383 0Z" fill="#A8A2A2"/>
</svg>
