<svg width="12" height="14" viewBox="0 0 12 14" fill="none" xmlns="http://www.w3.org/2000/svg">
<path d="M11.0228 9.06182C10.9742 9.00322 10.9264 8.94463 10.8795 8.88809C10.235 8.1085 9.84505 7.63799 9.84505 5.43106C9.84505 4.28848 9.57171 3.35098 9.03294 2.64785C8.63568 2.12842 8.09866 1.73438 7.39085 1.44316C7.38174 1.4381 7.37361 1.43145 7.36683 1.42354C7.11224 0.570996 6.41556 0 5.62982 0C4.84407 0 4.14769 0.570996 3.8931 1.42266C3.8863 1.43028 3.87828 1.43672 3.86937 1.4417C2.21761 2.12168 1.41488 3.42627 1.41488 5.43018C1.41488 7.63799 1.02552 8.1085 0.380403 8.88721C0.333528 8.94375 0.285774 9.00117 0.237142 9.06094C0.111517 9.21244 0.0319233 9.39676 0.0077804 9.59208C-0.0163625 9.78741 0.015956 9.98556 0.100911 10.1631C0.281673 10.5439 0.666927 10.7804 1.10667 10.7804H10.1562C10.5939 10.7804 10.9765 10.5442 11.1578 10.1651C11.2432 9.98756 11.2758 9.78925 11.2519 9.5937C11.2279 9.39815 11.1484 9.21357 11.0228 9.06182ZM5.62982 13.125C6.05317 13.1247 6.46853 13.0097 6.83186 12.7924C7.19518 12.5751 7.49292 12.2635 7.69349 11.8907C7.70294 11.8729 7.7076 11.8528 7.70704 11.8326C7.70647 11.8124 7.70068 11.7927 7.69025 11.7754C7.67981 11.7581 7.66507 11.7438 7.64747 11.7339C7.62986 11.7239 7.60999 11.7187 7.58978 11.7188H3.67044C3.65021 11.7187 3.6303 11.7239 3.61265 11.7338C3.59501 11.7437 3.58023 11.758 3.56976 11.7753C3.55928 11.7926 3.55347 11.8123 3.55289 11.8326C3.55231 11.8528 3.55698 11.8728 3.56644 11.8907C3.76699 12.2635 4.06468 12.5751 4.42794 12.7924C4.79121 13.0097 5.20652 13.1246 5.62982 13.125Z" fill="#A8A2A2"/>
</svg>
