<svg width="25" height="25" viewBox="0 0 25 25" fill="none" xmlns="http://www.w3.org/2000/svg">
<path d="M6.0249 21.5H1.5249C1.22653 21.5 0.940386 21.3815 0.729407 21.1705C0.518429 20.9595 0.399902 20.6734 0.399902 20.375C0.399902 20.0766 0.518429 19.7905 0.729407 19.5795C0.940386 19.3685 1.22653 19.25 1.5249 19.25H6.0249V20H1.5249C1.42545 20 1.33006 20.0395 1.25974 20.1098C1.18941 20.1802 1.1499 20.2755 1.1499 20.375C1.1499 20.4745 1.18941 20.5698 1.25974 20.6402C1.33006 20.7105 1.42545 20.75 1.5249 20.75H6.0249V21.5Z" fill="black"/>
<path d="M3.0249 8.375H3.7749V19.625H3.0249V8.375ZM21.0249 8.375H21.7749V15.5H21.0249V8.375Z" fill="black"/>
<path d="M23.2749 9.87497C23.2115 9.8749 23.1492 9.85877 23.0938 9.82809L12.3999 3.92822L1.70603 9.82809C1.64895 9.85958 1.58465 9.87564 1.51947 9.8747C1.45429 9.87375 1.39048 9.85583 1.33434 9.82271C1.2782 9.78958 1.23166 9.7424 1.19932 9.6858C1.16697 9.6292 1.14994 9.56515 1.1499 9.49997V7.62497C1.14994 7.55794 1.16795 7.49215 1.20205 7.43444C1.23614 7.37673 1.28509 7.32922 1.34378 7.29684L12.2188 1.29684C12.2742 1.26604 12.3365 1.24988 12.3999 1.24988C12.4633 1.24988 12.5256 1.26604 12.581 1.29684L23.456 7.29684C23.5147 7.32922 23.5637 7.37673 23.5978 7.43444C23.6319 7.49215 23.6499 7.55794 23.6499 7.62497V9.49997C23.6499 9.59942 23.6104 9.69481 23.5401 9.76513C23.4697 9.83546 23.3744 9.87497 23.2749 9.87497ZM12.3999 3.12497C12.4633 3.12504 12.5256 3.14117 12.581 3.17184L22.8999 8.86472V7.84622L12.3999 2.05322L1.8999 7.84622V8.86472L12.2188 3.17184C12.2742 3.14117 12.3365 3.12504 12.3999 3.12497Z" fill="black"/>
<path d="M5.2749 19.625H4.5249V9.875C4.5249 9.77554 4.56441 9.68016 4.63474 9.60983C4.70506 9.53951 4.80045 9.5 4.8999 9.5H10.1499C10.2494 9.5 10.3447 9.53951 10.4151 9.60983C10.4854 9.68016 10.5249 9.77554 10.5249 9.875V15.5H9.7749V10.25H5.2749V19.625ZM19.1499 14.75H12.3999C12.1015 14.75 11.8154 14.6315 11.6044 14.4205C11.3934 14.2095 11.2749 13.9234 11.2749 13.625V10.625C11.2749 10.3266 11.3934 10.0405 11.6044 9.8295C11.8154 9.61853 12.1015 9.5 12.3999 9.5H19.1499C19.4483 9.5 19.7344 9.61853 19.9454 9.8295C20.1564 10.0405 20.2749 10.3266 20.2749 10.625V13.625C20.2749 13.9234 20.1564 14.2095 19.9454 14.4205C19.7344 14.6315 19.4483 14.75 19.1499 14.75ZM12.3999 10.25C12.3004 10.25 12.2051 10.2895 12.1347 10.3598C12.0644 10.4302 12.0249 10.5255 12.0249 10.625V13.625C12.0249 13.7245 12.0644 13.8198 12.1347 13.8902C12.2051 13.9605 12.3004 14 12.3999 14H19.1499C19.2494 14 19.3447 13.9605 19.4151 13.8902C19.4854 13.8198 19.5249 13.7245 19.5249 13.625V10.625C19.5249 10.5255 19.4854 10.4302 19.4151 10.3598C19.3447 10.2895 19.2494 10.25 19.1499 10.25H12.3999ZM4.8999 5.97125H4.1499V2.375C4.1499 2.27554 4.18941 2.18016 4.25974 2.10984C4.33006 2.03951 4.42545 2 4.5249 2H7.5249C7.62436 2 7.71974 2.03951 7.79007 2.10984C7.86039 2.18016 7.8999 2.27554 7.8999 2.375V4.31375H7.1499V2.75H4.8999V5.97125Z" fill="black"/>
<path d="M7.8999 2.75H4.1499C4.05045 2.75 3.95506 2.71049 3.88474 2.64016C3.81441 2.56984 3.7749 2.47446 3.7749 2.375V0.875C3.7749 0.775544 3.81441 0.680161 3.88474 0.609835C3.95506 0.539509 4.05045 0.5 4.1499 0.5H7.8999C7.99936 0.5 8.09474 0.539509 8.16507 0.609835C8.23539 0.680161 8.2749 0.775544 8.2749 0.875V2.375C8.2749 2.47446 8.23539 2.56984 8.16507 2.64016C8.09474 2.71049 7.99936 2.75 7.8999 2.75ZM4.5249 2H7.5249V1.25H4.5249V2ZM22.5249 24.5H9.3999C9.33961 24.5 9.28021 24.4854 9.22675 24.4575C9.17328 24.4296 9.12733 24.3893 9.09278 24.3399L6.46778 20.5899C6.42373 20.5269 6.40011 20.4519 6.40011 20.375C6.40011 20.2981 6.42373 20.2231 6.46778 20.1601L9.09278 16.4101C9.12733 16.3607 9.17328 16.3204 9.22675 16.2925C9.28021 16.2646 9.33961 16.25 9.3999 16.25H22.5249C23.022 16.2506 23.4986 16.4483 23.8501 16.7998C24.2016 17.1513 24.3993 17.6279 24.3999 18.125V22.625C24.3993 23.1221 24.2016 23.5987 23.8501 23.9502C23.4986 24.3017 23.022 24.4994 22.5249 24.5ZM9.59528 23.75H22.5249C22.8233 23.75 23.1094 23.6315 23.3204 23.4205C23.5314 23.2095 23.6499 22.9234 23.6499 22.625V18.125C23.6499 17.8266 23.5314 17.5405 23.3204 17.3295C23.1094 17.1185 22.8233 17 22.5249 17H9.59528L7.23278 20.375L9.59528 23.75Z" fill="black"/>
<path d="M12.3999 20.75H10.8999C10.8004 20.75 10.7051 20.7105 10.6347 20.6402C10.5644 20.5698 10.5249 20.4745 10.5249 20.375V18.875C10.5249 18.7755 10.5644 18.6802 10.6347 18.6098C10.7051 18.5395 10.8004 18.5 10.8999 18.5H12.3999C12.6983 18.5 12.9844 18.6185 13.1954 18.8295C13.4064 19.0405 13.5249 19.3266 13.5249 19.625C13.5249 19.9234 13.4064 20.2095 13.1954 20.4205C12.9844 20.6315 12.6983 20.75 12.3999 20.75ZM11.2749 20H12.3999C12.4994 20 12.5947 19.9605 12.6651 19.8902C12.7354 19.8198 12.7749 19.7245 12.7749 19.625C12.7749 19.5255 12.7354 19.4302 12.6651 19.3598C12.5947 19.2895 12.4994 19.25 12.3999 19.25H11.2749V20Z" fill="black"/>
<path d="M12.8015 22.3895L12.146 20.75H11.2749V22.25H10.5249V20.375C10.5249 20.2755 10.5644 20.1802 10.6347 20.1098C10.7051 20.0395 10.8004 20 10.8999 20H12.3999C12.4749 19.9999 12.5481 20.0223 12.6102 20.0643C12.6723 20.1063 12.7204 20.1659 12.7483 20.2355L13.4983 22.1105L12.8015 22.3895ZM16.1499 20.75H14.2749C14.1754 20.75 14.0801 20.7105 14.0097 20.6402C13.9394 20.5698 13.8999 20.4745 13.8999 20.375V19.25C13.8999 19.0511 13.9789 18.8603 14.1196 18.7197C14.2602 18.579 14.451 18.5 14.6499 18.5H16.5249V19.25H14.6499V20H16.1499V20.75Z" fill="black"/>
<path d="M16.5249 22.25H14.6499C14.451 22.25 14.2602 22.171 14.1196 22.0303C13.9789 21.8897 13.8999 21.6989 13.8999 21.5V20.375H14.6499V21.5H16.5249V22.25ZM19.5249 22.25C19.4613 22.25 19.3987 22.2338 19.3431 22.203C19.2875 22.1722 19.2406 22.1277 19.2069 22.0738L18.0249 20.1826V22.25H17.2749V18.875C17.2749 18.7936 17.3014 18.7144 17.3504 18.6493C17.3994 18.5843 17.4682 18.537 17.5465 18.5145C17.6248 18.4921 17.7082 18.4957 17.7843 18.5249C17.8603 18.5541 17.9247 18.6072 17.9679 18.6763L19.1499 20.5674V18.5H19.8999V21.875C19.8999 21.9745 19.8604 22.0698 19.7901 22.1402C19.7197 22.2105 19.6244 22.25 19.5249 22.25ZM20.6499 18.5H22.8999V19.25H20.6499V18.5Z" fill="black"/>
<path d="M21.3999 18.875H22.1499V22.25H21.3999V18.875ZM14.6499 9.875H15.3999V14.375H14.6499V9.875ZM16.1499 9.875H16.8999V14.375H16.1499V9.875Z" fill="black"/>
<path d="M11.6499 11.75H15.0249V12.5H11.6499V11.75ZM16.5249 11.75H19.8999V12.5H16.5249V11.75Z" fill="black"/>
</svg>
