<svg width="32" height="32" viewBox="0 0 32 32" fill="none" xmlns="http://www.w3.org/2000/svg">
<path d="M31.0625 11.8437H27.5075C26.9893 11.8437 26.57 12.2637 26.57 12.7812C26.57 13.2987 26.9893 13.7187 27.5075 13.7187H28.34V19.2187C28.34 19.7362 28.76 20.1562 29.2775 20.1562C29.7956 20.1562 30.215 19.7362 30.215 19.2187V13.7187H31.0625C31.58 13.7187 32 13.2987 32 12.7812C32 12.2637 31.58 11.8437 31.0625 11.8437ZM10.5875 13.7187C11.1052 13.7187 11.525 13.299 11.525 12.7812C11.525 12.2635 11.1052 11.8437 10.5875 11.8437H7.87499C7.35724 11.8437 6.93749 12.2635 6.93749 12.7812V19.2187C6.93749 19.7365 7.35724 20.1562 7.87499 20.1562H10.5875C11.1052 20.1562 11.525 19.7365 11.525 19.2187C11.525 18.701 11.1052 18.2812 10.5875 18.2812H8.81249V16.9375H10.3875C10.9052 16.9375 11.325 16.5177 11.325 16C11.325 15.4822 10.9052 15.0625 10.3875 15.0625H8.81249V13.7187H10.5875ZM24.1368 13.7187C24.6543 13.7187 25.0743 13.2987 25.0743 12.7812C25.0743 12.2637 24.6543 11.8437 24.1368 11.8437H21.4243C20.9062 11.8437 20.4868 12.2637 20.4868 12.7812V19.2187C20.4868 19.7362 20.9062 20.1562 21.4243 20.1562H24.1368C24.6543 20.1562 25.0743 19.7362 25.0743 19.2187C25.0743 18.7012 24.6543 18.2812 24.1368 18.2812H22.3618V16.9375H23.9362C24.4543 16.9375 24.8737 16.5175 24.8737 16C24.8737 15.4825 24.4543 15.0625 23.9362 15.0625H22.3618V13.7187H24.1368ZM4.41812 20.1562C4.63812 20.1562 4.85937 20.0793 5.03749 19.9225C5.42624 19.5806 5.46374 18.9881 5.12187 18.5993L3.61812 16.8912C4.63312 16.5144 5.35562 15.5644 5.35562 14.4544C5.35562 13.015 4.14187 11.8437 2.65 11.8437H0.937499C0.419999 11.8437 0 12.2637 0 12.7812V19.2187C0 19.7362 0.419999 20.1562 0.937499 20.1562C1.455 20.1562 1.875 19.7362 1.875 19.2187V17.7481L3.71437 19.8381C3.89937 20.0487 4.15812 20.1562 4.41812 20.1562ZM2.65 15.19C2.46625 15.19 2.17437 15.1906 1.88375 15.1925C1.8825 14.9094 1.88062 14.015 1.88 13.7187H2.65C3.1 13.7187 3.48062 14.0556 3.48062 14.4544C3.48062 14.8531 3.1 15.19 2.65 15.19ZM3.77999 7.14187C4.17999 7.47124 4.77062 7.41499 5.09999 7.01562C7.79624 3.74874 11.7694 1.875 16 1.875C19.5156 1.875 22.8525 3.16937 25.4268 5.48124H24.0325C23.515 5.48124 23.095 5.90124 23.095 6.41874C23.095 6.93687 23.515 7.35624 24.0325 7.35624H27.6231C27.8387 7.35624 28.0531 7.27937 28.22 7.14187C28.4331 6.96624 28.5612 6.69437 28.5606 6.41749V2.82875C28.5606 2.31062 28.1406 1.89125 27.6231 1.89125C27.105 1.89125 26.6856 2.31062 26.6856 2.82875V4.09124C23.7681 1.46875 19.9856 0 16 0C11.2075 0 6.70749 2.12187 3.65374 5.82187C3.32437 6.22124 3.38125 6.81249 3.77999 7.14187ZM16.0494 18.2812C15.4514 18.2824 14.8662 18.0394 14.5006 17.635C14.1531 17.2512 13.56 17.2219 13.1769 17.57C12.7931 17.9175 12.7637 18.5106 13.1112 18.8937C13.8369 19.6965 14.914 20.1567 16.0494 20.1562C17.4706 20.1562 18.665 19.2444 18.8893 17.9881C19.0587 17.0381 18.6337 15.7987 16.9331 15.1712C16.6006 15.0494 16.2787 14.9219 16 14.8087C15.6337 14.6594 15.3431 14.5344 15.205 14.4737C15.0994 14.38 15.0981 14.2569 15.1081 14.1875C15.1206 14.0994 15.1869 13.8825 15.5269 13.78C15.6881 13.7312 15.8475 13.715 16 13.7212C16.6475 13.745 17.17 14.1606 17.1769 14.1662C17.6819 14.4231 18.2725 14.2425 18.51 13.8219C18.6962 13.4925 18.6456 13.0506 18.3769 12.7256C17.675 12.1112 16.8312 11.8256 16 11.8319C15.6569 11.8337 15.315 11.8862 14.9862 11.985C14.0475 12.2675 13.3831 13.0094 13.2519 13.9212C13.1287 14.7794 13.5012 15.6056 14.2237 16.0769C14.265 16.1037 14.3087 16.1275 14.3537 16.1475C14.3875 16.1625 15.1187 16.4881 16 16.8244C16.0931 16.8594 16.1881 16.895 16.2837 16.9306C16.48 17.0025 17.1131 17.2681 17.0431 17.6587C16.99 17.9581 16.5944 18.2812 16.0494 18.2812ZM28.0775 24.8581C27.6787 24.5287 27.0875 24.585 26.7581 24.9843C24.0918 28.215 20.1775 30.0831 16 30.1243C12.4399 30.1608 9.03836 28.8619 6.43124 26.5187H7.82561C8.34311 26.5187 8.76311 26.0987 8.76311 25.5812C8.76311 25.0631 8.34311 24.6437 7.82561 24.6437H4.23499C3.73125 24.6343 3.28812 25.0787 3.2975 25.5825V29.1712C3.2975 29.6893 3.71749 30.1087 4.23499 30.1087C4.75312 30.1087 5.17249 29.6893 5.17249 29.1712V27.9087C8.1228 30.5625 11.9699 32.036 16 31.9993C20.7393 31.9581 25.1806 29.8418 28.2043 26.1781C28.5337 25.7787 28.4768 25.1875 28.0775 24.8581Z" fill="#212121"/>
</svg>
