<svg width="25" height="25" viewBox="0 0 25 25" fill="none" xmlns="http://www.w3.org/2000/svg">
<path d="M1.5999 6.10002H1.99989V23.3C1.99989 23.9627 2.53717 24.5 3.19989 24.5H4.79987C5.46259 24.5 5.99987 23.9628 5.99987 23.3V6.10002H9.59987V6.90003H7.99989C7.33712 6.90003 6.79989 7.43731 6.79989 8.10003V23.3C6.79989 23.9627 7.33717 24.5 7.99989 24.5H23.1999C23.8626 24.5 24.3999 23.9628 24.3999 23.3V8.09998C24.3999 7.43722 23.8627 6.89998 23.1999 6.89998H21.5999V6.09997H23.1999C23.8626 6.09997 24.3999 5.56269 24.3999 4.89997V3.29998C24.3999 2.63727 23.8627 2.09998 23.1999 2.09998H21.5999V1.7C21.5999 1.59392 21.5578 1.49218 21.4828 1.41717C21.4078 1.34216 21.306 1.30002 21.1999 1.30002C21.0939 1.30002 20.9921 1.34216 20.9171 1.41717C20.8421 1.49218 20.7999 1.59392 20.7999 1.7V2.09998H10.3999V1.7C10.3999 1.59392 10.3577 1.49218 10.2827 1.41717C10.2077 1.34216 10.106 1.30002 9.9999 1.30002C9.89382 1.30002 9.79208 1.34216 9.71707 1.41717C9.64206 1.49218 9.59992 1.59392 9.59992 1.7V2.09998H5.99992V1.7C5.99992 1.03728 5.46264 0.5 4.79992 0.5H3.19989C2.53717 0.5 1.99989 1.03728 1.99989 1.7V2.09998H1.5999C0.937184 2.09998 0.399902 2.63727 0.399902 3.29998V4.89997C0.399902 5.56273 0.937184 6.10002 1.5999 6.10002ZM23.1999 7.7C23.306 7.7 23.4077 7.74214 23.4827 7.81715C23.5577 7.89216 23.5999 7.9939 23.5999 8.09998V23.3C23.5999 23.4061 23.5577 23.5078 23.4827 23.5828C23.4077 23.6578 23.306 23.7 23.1999 23.7H7.99989C7.8938 23.7 7.79207 23.6578 7.71706 23.5828C7.64204 23.5078 7.5999 23.4061 7.5999 23.3V8.09998C7.5999 7.9939 7.64204 7.89216 7.71706 7.81715C7.79207 7.74214 7.8938 7.7 7.99989 7.7H9.59987V8.9C9.59987 9.00608 9.64201 9.10782 9.71702 9.18283C9.79204 9.25784 9.89377 9.29998 9.99986 9.29998C10.1059 9.29998 10.2077 9.25784 10.2827 9.18283C10.3577 9.10782 10.3998 9.00608 10.3998 8.9V7.7H20.7999V8.9C20.7999 9.00608 20.842 9.10782 20.9171 9.18283C20.9921 9.25784 21.0938 9.29998 21.1999 9.29998C21.306 9.29998 21.4077 9.25784 21.4827 9.18283C21.5577 9.10782 21.5999 9.00608 21.5999 8.9V7.7H23.1999ZM20.7999 6.89998H10.3999V6.09997H20.7999V6.89998ZM23.1999 2.9C23.306 2.9 23.4077 2.94214 23.4827 3.01715C23.5577 3.09216 23.5999 3.1939 23.5999 3.29998V4.89997C23.5999 5.00605 23.5577 5.10779 23.4827 5.1828C23.4077 5.25781 23.306 5.29995 23.1999 5.29995H21.5999V2.9H23.1999ZM20.7999 2.9V5.3H10.3999V2.9H20.7999ZM9.59992 2.9V5.3H5.99992V2.9H9.59992ZM2.7999 1.7C2.7999 1.59392 2.84204 1.49218 2.91706 1.41717C2.99207 1.34216 3.0938 1.30002 3.19989 1.30002H4.79987C4.90595 1.30002 5.00769 1.34216 5.0827 1.41717C5.15771 1.49218 5.19986 1.59392 5.19986 1.7V23.3C5.19986 23.4061 5.15771 23.5078 5.0827 23.5828C5.00769 23.6578 4.90595 23.7 4.79987 23.7H3.19989C3.0938 23.7 2.99207 23.6578 2.91706 23.5828C2.84204 23.5078 2.7999 23.4061 2.7999 23.3V1.7ZM1.19992 3.29998C1.19992 3.1939 1.24206 3.09216 1.31707 3.01715C1.39208 2.94214 1.49382 2.9 1.5999 2.9H1.99989V5.3H1.5999C1.54738 5.3 1.49536 5.28965 1.44683 5.26955C1.39831 5.24945 1.35421 5.21999 1.31707 5.18285C1.27993 5.14571 1.25047 5.10161 1.23036 5.05308C1.21026 5.00455 1.19992 4.95254 1.19992 4.90002V3.29998Z" fill="url(#paint0_linear_458_1625)"/>
<path d="M3.99984 4.50004C4.22074 4.50004 4.39982 4.32096 4.39982 4.10006C4.39982 3.87915 4.22074 3.70007 3.99984 3.70007C3.77893 3.70007 3.59985 3.87915 3.59985 4.10006C3.59985 4.32096 3.77893 4.50004 3.99984 4.50004Z" fill="url(#paint1_linear_458_1625)"/>
<path fill-rule="evenodd" clip-rule="evenodd" d="M10.7999 19.7C11.2883 19.7 11.6 19.9369 11.6 20.1C11.6 20.2061 11.6421 20.3078 11.7171 20.3829C11.7921 20.4579 11.8939 20.5 11.9999 20.5C12.106 20.5 12.2078 20.4579 12.2828 20.3829C12.3578 20.3078 12.3999 20.2061 12.3999 20.1C12.3999 19.4272 11.6971 18.9 10.7999 18.9C9.90275 18.9 9.19995 19.4272 9.19995 20.1C9.19995 20.7728 9.90275 21.3 10.7999 21.3C11.2883 21.3 11.6 21.5368 11.6 21.7C11.6 21.8632 11.2884 22.1 10.7999 22.1C10.3115 22.1 9.99992 21.8632 9.99992 21.7C9.99992 21.5939 9.95778 21.4922 9.88277 21.4172C9.80776 21.3422 9.70602 21.3 9.59994 21.3C9.49385 21.3 9.39212 21.3422 9.3171 21.4172C9.24209 21.4922 9.19995 21.5939 9.19995 21.7C9.19995 22.3728 9.90275 22.9 10.7999 22.9C11.6971 22.9 12.3999 22.3729 12.3999 21.7001C12.3999 21.0273 11.6971 20.5001 10.7999 20.5001C10.3115 20.5001 9.99992 20.2632 9.99992 20.1001C9.99992 19.9369 10.3115 19.7 10.7999 19.7Z" fill="url(#paint2_linear_458_1625)"/>
<path d="M14.7747 19.1596C14.7462 19.0832 14.695 19.0173 14.6281 18.9708C14.5611 18.9242 14.4814 18.8993 14.3999 18.8993C14.3183 18.8993 14.2387 18.9242 14.1717 18.9708C14.1047 19.0173 14.0535 19.0832 14.0251 19.1596L12.8251 22.3596C12.8005 22.4254 12.7937 22.4965 12.8053 22.5658C12.8169 22.635 12.8466 22.7 12.8913 22.7542C12.936 22.8084 12.9941 22.8498 13.0599 22.8744C13.1257 22.899 13.1968 22.9058 13.266 22.8942C13.3353 22.8826 13.4003 22.853 13.4544 22.8083C13.5086 22.7636 13.5501 22.7055 13.5746 22.6397L13.837 21.9393H14.9627L15.2251 22.6397C15.2535 22.7161 15.3047 22.782 15.3717 22.8286C15.4387 22.8751 15.5183 22.9001 15.5999 22.9001C15.6478 22.8999 15.6953 22.8914 15.7403 22.8748C15.7895 22.8564 15.8346 22.8285 15.8731 22.7926C15.9115 22.7568 15.9425 22.7137 15.9643 22.6658C15.986 22.618 15.9982 22.5663 15.9999 22.5138C16.0017 22.4612 15.9931 22.4089 15.9746 22.3596L14.7747 19.1596ZM14.1371 21.14L14.3999 20.4393L14.6627 21.14H14.1371Z" fill="url(#paint3_linear_458_1625)"/>
<path fill-rule="evenodd" clip-rule="evenodd" d="M18.3999 22.1H17.1999V19.3001C17.1999 19.194 17.1577 19.0922 17.0827 19.0172C17.0077 18.9422 16.906 18.9001 16.7999 18.9001C16.6938 18.9001 16.5921 18.9422 16.5171 19.0172C16.442 19.0922 16.3999 19.194 16.3999 19.3001V22.5001C16.3999 22.6062 16.442 22.7079 16.5171 22.7829C16.5921 22.8579 16.6938 22.9001 16.7999 22.9001H18.3999C18.506 22.9001 18.6077 22.8579 18.6827 22.7829C18.7577 22.7079 18.7999 22.6061 18.7999 22.5C18.7999 22.394 18.7577 22.2922 18.6827 22.2172C18.6077 22.1422 18.506 22.1 18.3999 22.1ZM19.5999 18.9C19.4938 18.9 19.3921 18.9422 19.317 19.0172C19.242 19.0922 19.1999 19.1939 19.1999 19.3V22.5C19.1999 22.6061 19.242 22.7078 19.317 22.7829C19.3921 22.8579 19.4938 22.9 19.5999 22.9H21.5999C21.706 22.9 21.8077 22.8579 21.8827 22.7829C21.9577 22.7078 21.9999 22.6061 21.9999 22.5C21.9999 22.3939 21.9577 22.2922 21.8827 22.2172C21.8077 22.1422 21.706 22.1 21.5999 22.1H19.9999V21.3H21.5999C21.706 21.3 21.8077 21.2579 21.8827 21.1829C21.9577 21.1079 21.9999 21.0061 21.9999 20.9C21.9999 20.794 21.9577 20.6922 21.8827 20.6172C21.8077 20.5422 21.706 20.5001 21.5999 20.5001H19.9999V19.7H21.5999C21.706 19.7 21.8077 19.6579 21.8827 19.5829C21.9577 19.5079 21.9999 19.4061 21.9999 19.3001C21.9999 19.194 21.9577 19.0922 21.8827 19.0172C21.8077 18.9422 21.706 18.9001 21.5999 18.9001H19.5999V18.9Z" fill="url(#paint4_linear_458_1625)"/>
<path d="M19.6 17.3V13.2968C19.7619 13.2942 19.9194 13.2434 20.0522 13.1507C20.1851 13.0581 20.2872 12.9279 20.3455 12.7768C20.4048 12.624 20.4158 12.4567 20.3772 12.2975C20.3386 12.1383 20.2522 11.9947 20.1295 11.886L19.6 11.4084V9.3C19.6 8.85816 19.2418 8.49999 18.7999 8.49999H17.9999C17.5764 8.50168 17.2276 8.83313 17.2043 9.25599L16.1523 8.3108C15.8384 8.02791 15.3614 8.02791 15.0475 8.3108L11.0703 11.884C10.9477 11.9927 10.8613 12.1363 10.8227 12.2955C10.784 12.4548 10.7951 12.622 10.8543 12.7748C10.9123 12.9263 11.0143 13.0569 11.1472 13.1499C11.28 13.243 11.4377 13.2941 11.5999 13.2968V17.3C11.5999 17.7418 11.9581 18.1 12.3999 18.1H18.7999C19.2418 18.1 19.6 17.7418 19.6 17.3ZM18 9.29996H18.8V10.6896L18 9.96957V9.29996ZM15.6175 8.90597L19.5772 12.5H15.6L11.6052 12.4792L15.6175 8.90597ZM15.1999 17.3V16.1C15.1999 15.9939 15.2421 15.8922 15.3171 15.8171C15.3921 15.7421 15.4938 15.7 15.5999 15.7C15.706 15.7 15.8077 15.7421 15.8828 15.8171C15.9578 15.8922 15.9999 15.9939 15.9999 16.1V17.3H15.1999ZM16.8 17.3V16.1C16.8 15.4373 16.2627 14.9 15.6 14.9C14.9372 14.9 14.4 15.4373 14.4 16.1V17.3H12.4V13.3H18.7999V17.3H16.8Z" fill="url(#paint5_linear_458_1625)"/>
<defs>
<linearGradient id="paint0_linear_458_1625" x1="12.6879" y1="24.5" x2="-1.49606" y2="23.0697" gradientUnits="userSpaceOnUse">
<stop stop-color="#226DFF"/>
<stop offset="1" stop-color="#6499FF"/>
</linearGradient>
<linearGradient id="paint1_linear_458_1625" x1="4.00944" y1="4.50004" x2="3.53666" y2="4.45237" gradientUnits="userSpaceOnUse">
<stop stop-color="#226DFF"/>
<stop offset="1" stop-color="#6499FF"/>
</linearGradient>
<linearGradient id="paint2_linear_458_1625" x1="10.8383" y1="22.9" x2="8.94028" y2="22.7469" gradientUnits="userSpaceOnUse">
<stop stop-color="#226DFF"/>
<stop offset="1" stop-color="#6499FF"/>
</linearGradient>
<linearGradient id="paint3_linear_458_1625" x1="14.4384" y1="22.9001" x2="12.5401" y2="22.7469" gradientUnits="userSpaceOnUse">
<stop stop-color="#226DFF"/>
<stop offset="1" stop-color="#6499FF"/>
</linearGradient>
<linearGradient id="paint4_linear_458_1625" x1="19.2671" y1="22.9001" x2="15.9892" y2="22.4373" gradientUnits="userSpaceOnUse">
<stop stop-color="#226DFF"/>
<stop offset="1" stop-color="#6499FF"/>
</linearGradient>
<linearGradient id="paint5_linear_458_1625" x1="15.7151" y1="18.1" x2="10.0372" y2="17.5504" gradientUnits="userSpaceOnUse">
<stop stop-color="#226DFF"/>
<stop offset="1" stop-color="#6499FF"/>
</linearGradient>
</defs>
</svg>
