<svg width="27" height="26" viewBox="0 0 27 26" fill="none" xmlns="http://www.w3.org/2000/svg">
<path fill-rule="evenodd" clip-rule="evenodd" d="M0.566972 2.77223C0.463159 2.35826 0.480328 1.9232 0.61644 1.5187C0.752552 1.1142 1.00189 0.757253 1.33484 0.490253C1.6678 0.223253 2.07038 0.0574124 2.49479 0.0124243C2.9192 -0.0325637 3.34761 0.0451906 3.72914 0.236454L25.2657 11.0048C25.6366 11.1898 25.9485 11.4745 26.1665 11.8269C26.3845 12.1794 26.5 12.5856 26.5 13C26.5 13.4144 26.3845 13.8206 26.1665 14.1731C25.9485 14.5255 25.6366 14.8102 25.2657 14.9952L3.72914 25.7635C3.34761 25.9548 2.9192 26.0326 2.49479 25.9876C2.07038 25.9426 1.6678 25.7767 1.33484 25.5097C1.00189 25.2427 0.752552 24.8858 0.61644 24.4813C0.480328 24.0768 0.463159 23.6417 0.566972 23.2278L2.82221 14.2092L15.9183 13L2.82221 11.7908L0.566972 2.77223Z" fill="#F5F5F5"/>
</svg>
