<svg width="29" height="28" viewBox="0 0 29 28" fill="none" xmlns="http://www.w3.org/2000/svg">
<path fill-rule="evenodd" clip-rule="evenodd" d="M9.06657 1.33333C7.12165 1.33333 5.25639 2.10595 3.88112 3.48122C2.50585 4.85648 1.73324 6.72175 1.73324 8.66667V19.3333C1.73324 19.4173 1.73457 19.5027 1.73724 19.5867L6.9799 16.9653C7.62781 16.6414 8.34222 16.4728 9.06657 16.4728C9.79092 16.4728 10.5053 16.6414 11.1532 16.9653L12.3586 17.5667C12.9381 17.8565 13.5895 17.9711 14.2331 17.8965C14.8768 17.8219 15.4847 17.5613 15.9826 17.1467L19.1666 14.4933C20.0612 13.7477 21.2024 13.3635 22.3659 13.4163C23.5294 13.4691 24.6311 13.955 25.4546 14.7787L27.0666 16.3907V13.3333C27.0666 13.1565 27.1368 12.987 27.2618 12.8619C27.3869 12.7369 27.5564 12.6667 27.7332 12.6667C27.91 12.6667 28.0796 12.7369 28.2046 12.8619C28.3297 12.987 28.3999 13.1565 28.3999 13.3333V19.3333C28.3999 21.6319 27.4868 23.8363 25.8615 25.4616C24.2362 27.0869 22.0318 28 19.7332 28H9.06657C6.76803 28 4.56363 27.0869 2.93831 25.4616C1.31299 23.8363 0.399902 21.6319 0.399902 19.3333V8.66667C0.399902 6.36812 1.31299 4.16372 2.93831 2.53841C4.56363 0.913093 6.76803 0 9.06657 0H17.7332C17.91 0 18.0796 0.0702379 18.2046 0.195262C18.3297 0.320286 18.3999 0.489856 18.3999 0.666667C18.3999 0.843478 18.3297 1.01305 18.2046 1.13807C18.0796 1.2631 17.91 1.33333 17.7332 1.33333H9.06657ZM9.06657 26.6667C7.40862 26.6666 5.79958 26.1049 4.50176 25.0732C3.20393 24.0415 2.29386 22.6006 1.9199 20.9853L7.5759 18.1573C8.03874 17.9259 8.5491 17.8054 9.06657 17.8054C9.58404 17.8054 10.0944 17.9259 10.5572 18.1573L11.7626 18.76C12.574 19.1655 13.486 19.3257 14.387 19.221C15.288 19.1163 16.139 18.7513 16.8359 18.1707L20.0199 15.5173C20.659 14.9846 21.4743 14.7101 22.3055 14.7478C23.1367 14.7856 23.9237 15.1328 24.5119 15.7213L27.0666 18.276V19.3333C27.0666 21.2783 26.294 23.1435 24.9187 24.5188C23.5434 25.8941 21.6782 26.6667 19.7332 26.6667H9.06657Z" fill="black"/>
<path fill-rule="evenodd" clip-rule="evenodd" d="M13.0666 7.99996C13.0666 8.88401 12.7154 9.73186 12.0903 10.357C11.4651 10.9821 10.6173 11.3333 9.73324 11.3333C8.84918 11.3333 8.00133 10.9821 7.37621 10.357C6.75109 9.73186 6.3999 8.88401 6.3999 7.99996C6.3999 7.1159 6.75109 6.26806 7.37621 5.64294C8.00133 5.01782 8.84918 4.66663 9.73324 4.66663C10.6173 4.66663 11.4651 5.01782 12.0903 5.64294C12.7154 6.26806 13.0666 7.1159 13.0666 7.99996ZM11.7332 7.99996C11.7332 8.53039 11.5225 9.0391 11.1474 9.41417C10.7724 9.78925 10.2637 9.99996 9.73324 9.99996C9.2028 9.99996 8.69409 9.78925 8.31902 9.41417C7.94395 9.0391 7.73324 8.53039 7.73324 7.99996C7.73324 7.46953 7.94395 6.96082 8.31902 6.58575C8.69409 6.21067 9.2028 5.99996 9.73324 5.99996C10.2637 5.99996 10.7724 6.21067 11.1474 6.58575C11.5225 6.96082 11.7332 7.46953 11.7332 7.99996Z" fill="black"/>
<path d="M23.7332 1.33337C23.9101 1.33337 24.0796 1.40361 24.2047 1.52864C24.3297 1.65366 24.3999 1.82323 24.3999 2.00004V4.02137L26.4039 4.03471C26.5807 4.03577 26.7499 4.10702 26.8741 4.2328C26.9984 4.35857 27.0676 4.52856 27.0666 4.70537C27.0655 4.88218 26.9943 5.05133 26.8685 5.17561C26.7427 5.29988 26.5727 5.3691 26.3959 5.36804L24.3999 5.35471V7.33337C24.3999 7.51018 24.3297 7.67975 24.2047 7.80478C24.0796 7.9298 23.9101 8.00004 23.7332 8.00004C23.5564 8.00004 23.3869 7.9298 23.2618 7.80478C23.1368 7.67975 23.0666 7.51018 23.0666 7.33337V5.34671L21.0626 5.33337C20.975 5.33285 20.8884 5.31508 20.8078 5.2811C20.7271 5.24711 20.6539 5.19756 20.5923 5.13528C20.4681 5.00951 20.3989 4.83952 20.3999 4.66271C20.401 4.4859 20.4722 4.31675 20.598 4.19247C20.7238 4.0682 20.8938 3.99898 21.0706 4.00004L23.0666 4.01337V2.00004C23.0666 1.82323 23.1368 1.65366 23.2618 1.52864C23.3869 1.40361 23.5564 1.33337 23.7332 1.33337Z" fill="black"/>
</svg>
