<svg width="25" height="24" viewBox="0 0 25 24" fill="none" xmlns="http://www.w3.org/2000/svg">
<path d="M12.5 16.25C9.88 16.25 7.75 14.12 7.75 11.5V6C7.75 3.38 9.88 1.25 12.5 1.25C15.12 1.25 17.25 3.38 17.25 6V11.5C17.25 14.12 15.12 16.25 12.5 16.25ZM12.5 2.75C10.71 2.75 9.25 4.21 9.25 6V11.5C9.25 13.29 10.71 14.75 12.5 14.75C14.29 14.75 15.75 13.29 15.75 11.5V6C15.75 4.21 14.29 2.75 12.5 2.75Z" fill="#212121"/>
<path d="M12.5001 19.7499C7.8701 19.7499 4.1001 15.9799 4.1001 11.3499V9.6499C4.1001 9.2399 4.4401 8.8999 4.8501 8.8999C5.2601 8.8999 5.6001 9.2399 5.6001 9.6499V11.3499C5.6001 15.1499 8.7001 18.2499 12.5001 18.2499C16.3001 18.2499 19.4001 15.1499 19.4001 11.3499V9.6499C19.4001 9.2399 19.7401 8.8999 20.1501 8.8999C20.5601 8.8999 20.9001 9.2399 20.9001 9.6499V11.3499C20.9001 15.9799 17.1301 19.7499 12.5001 19.7499Z" fill="#212121"/>
<path d="M13.8901 7.18007C13.8101 7.18007 13.7201 7.17007 13.6301 7.14007C12.9001 6.87007 12.1001 6.87007 11.3701 7.14007C10.9801 7.28007 10.5501 7.08007 10.4101 6.69007C10.2701 6.30007 10.4701 5.87007 10.8601 5.73007C11.9201 5.35007 13.0901 5.35007 14.1501 5.73007C14.5401 5.87007 14.7401 6.30007 14.6001 6.69007C14.4801 6.99007 14.1901 7.18007 13.8901 7.18007Z" fill="#212121"/>
<path d="M13.3001 9.30007C13.2301 9.30007 13.1701 9.29007 13.1001 9.27007C12.7001 9.16007 12.2901 9.16007 11.8901 9.27007C11.4901 9.38007 11.0801 9.14007 10.9701 8.74007C10.8601 8.35007 11.1001 7.94007 11.5001 7.83007C12.1501 7.65007 12.8501 7.65007 13.5001 7.83007C13.9001 7.94007 14.1401 8.35007 14.0301 8.75007C13.9401 9.08007 13.6301 9.30007 13.3001 9.30007Z" fill="#212121"/>
<path d="M12.5 22.75C12.09 22.75 11.75 22.41 11.75 22V19C11.75 18.59 12.09 18.25 12.5 18.25C12.91 18.25 13.25 18.59 13.25 19V22C13.25 22.41 12.91 22.75 12.5 22.75Z" fill="#212121"/>
</svg>
